<svg width="48" height="48" viewBox="0 0 48 48" fill="none" xmlns="http://www.w3.org/2000/svg">
<path d="M24.9036 18.3939L24.9033 23.4168V23.4168V23.4752C24.9033 23.5917 24.9184 23.7048 24.9466 23.8125L24.8988 24.6302L24.8962 24.6742C24.885 24.8659 24.8103 25.0335 24.6842 25.1598L26.1268 24.2149C26.0445 24.2014 25.9624 24.1722 25.8806 24.1277L25.4844 23.9119V23.4752V23.4168V18.3939M24.9036 18.3939V18.3938L25.194 18.3938L25.4844 18.3939M24.9036 18.3939C24.9036 18.5543 25.0338 18.6843 25.194 18.6843C25.3544 18.6843 25.4844 18.554 25.4844 18.3939M24.9036 18.3939H25.194H25.4844M19.2833 17.9449L19.2833 17.9449L19.2833 17.9449ZM19.2833 17.9449C19.0703 18.3159 18.5586 18.4545 18.1849 18.2398L19.2833 17.9449ZM17.8522 18.8176L17.8516 18.8172C17.5772 18.6588 17.3794 18.3994 17.2976 18.0953L17.2974 18.0949L17.2974 18.0948L17.297 18.0933C17.2304 17.8427 17.2473 17.5806 17.3431 17.3432V17.1486C17.1722 17.4436 17.1265 17.7878 17.2149 18.1169C17.3028 18.4459 17.5141 18.7208 17.8095 18.8921L17.8522 18.8176ZM25.0957 25.5709L25.1558 25.631L25.0957 25.571L25.095 25.5716C24.8442 25.822 24.5077 25.9601 24.1545 25.9601C24.1545 25.9601 24.1545 25.9601 24.1545 25.9601C23.6743 25.9601 23.2532 25.7049 23.0194 25.323C22.9954 25.3353 22.9711 25.3471 22.9465 25.3586L25.0957 25.5709ZM17.9195 17.4835C17.8377 17.6253 17.8166 17.7867 17.8587 17.944C17.8587 17.944 17.8588 17.9441 17.8588 17.9441L17.8588 17.9442L17.859 17.9449C17.9007 18.1012 17.9992 18.2308 18.142 18.3142C18.142 18.3142 18.1421 18.3143 18.1421 18.3143L17.9195 17.4835Z" fill="#4CAF4F" stroke="#4CAF4F" stroke-width="1.33333"/>
<path d="M16.1254 30.7918C15.9468 30.8993 15.7159 30.8413 15.6092 30.663C15.5022 30.4849 15.5602 30.2537 15.738 30.1468L16.1254 30.7918ZM11.747 26.4271C11.7616 26.4007 11.7753 26.3761 11.788 26.3532C11.8392 26.2609 11.8739 26.1984 11.8879 26.1733L11.9637 26.2132C11.9169 26.2976 11.8709 26.3803 11.8258 26.4615C11.7994 26.4516 11.7731 26.4402 11.747 26.4271ZM22.1555 28.7211C22.3077 28.6297 22.4151 28.4851 22.458 28.3133C22.5009 28.1418 22.4742 27.9635 22.3831 27.8113L22.1555 28.7211Z" fill="#4CAF4F" stroke="#4CAF4F" stroke-width="1.33333"/>
<path d="M27.853 28.0933C27.759 28.035 27.6734 27.966 27.5978 27.888L26.8785 27.5117L26.8784 27.5116L26.8384 27.4907C26.7246 27.4311 26.6086 27.4029 26.4967 27.4026L27.853 28.0933ZM26.1719 26.862C26.1721 26.862 26.1722 26.8619 26.1723 26.8619L26.2277 27.0842L26.2277 27.0842L26.3128 27.4256L26.3127 27.4256L26.1719 26.862ZM30.3874 33.7857C30.3873 33.7856 30.3871 33.7855 30.387 33.7854L30.3874 33.7857ZM25.8453 30.1872L25.8466 30.188L25.8453 30.1872Z" fill="#4CAF4F" stroke="#4CAF4F" stroke-width="1.33333"/>
</svg>
